<?xml version="1.0" encoding="UTF-8" standalone="no"?>
<svg
   xmlns:dc="http://purl.org/dc/elements/1.1/"
   xmlns:cc="http://creativecommons.org/ns#"
   xmlns:rdf="http://www.w3.org/1999/02/22-rdf-syntax-ns#"
   xmlns:svg="http://www.w3.org/2000/svg"
   xmlns="http://www.w3.org/2000/svg"
   id="svg8"
   version="1.1"
   height="48"
   width="48">
  <metadata
     id="metadata14">
    <rdf:RDF>
      <cc:Work
         rdf:about="">
        <dc:format>image/svg+xml</dc:format>
        <dc:type
           rdf:resource="http://purl.org/dc/dcmitype/StillImage" />
      </cc:Work>
    </rdf:RDF>
  </metadata>
  <defs
     id="defs12" />
  <g
     style="fill:none;fill-rule:evenodd"
     id="g6">
    <rect
       style="fill:#3edc6b"
       y="0"
       x="0"
       id="rect2"
       rx="24"
       height="48"
       width="48" />
    <path
       style="fill:#ffffff"
       id="path4"
       d="M 31.659,22.997 H 24.996 V 16.333 A 0.333,0.333 0 0 0 24.662,16 H 23.33 a 0.333,0.333 0 0 0 -0.333,0.333 v 6.664 H 16.333 A 0.333,0.333 0 0 0 16,23.33 v 1.332 c 0,0.185 0.15,0.334 0.333,0.334 h 6.664 v 6.663 c 0,0.184 0.149,0.333 0.333,0.333 h 1.332 c 0.185,0 0.334,-0.149 0.334,-0.333 v -6.663 h 6.663 c 0.184,0 0.333,-0.15 0.333,-0.334 V 23.33 a 0.333,0.333 0 0 0 -0.333,-0.333 z" />
  </g>
</svg>
